<svg width="520" height="512" viewBox="0 0 520 512" fill="none" xmlns="http://www.w3.org/2000/svg">
<g filter="url(#filter0_d_340_694)">
<path d="M424.967 175.647C419.655 173.819 414.152 172.089 408.485 170.453C409.416 166.652 410.271 162.9 411.031 159.212C423.508 98.6498 415.35 49.8605 387.495 33.797C360.785 18.3942 317.103 34.4541 272.986 72.8476C268.744 76.5394 264.489 80.4482 260.237 84.5448C257.404 81.8344 254.575 79.2152 251.753 76.7099C205.517 35.6571 159.173 18.3568 131.345 34.4668C104.661 49.9143 96.7584 95.7808 107.989 153.176C109.074 158.72 110.341 164.381 111.775 170.137C105.216 171.999 98.8837 173.984 92.825 176.096C38.6187 194.994 4 224.613 4 255.336C4 287.067 41.1632 318.893 97.6233 338.191C102.079 339.714 106.702 341.154 111.467 342.521C109.92 348.746 108.575 354.847 107.446 360.797C96.7375 417.196 105.1 461.979 131.713 477.329C159.203 493.181 205.337 476.887 250.26 437.618C253.811 434.514 257.374 431.223 260.944 427.772C265.571 432.228 270.191 436.445 274.786 440.4C318.299 477.845 361.276 492.965 387.865 477.572C415.326 461.675 424.251 413.567 412.664 355.036C411.779 350.566 410.75 345.999 409.593 341.351C412.833 340.393 416.014 339.405 419.115 338.377C477.811 318.929 516 287.49 516 255.336C516 224.502 480.265 194.684 424.967 175.647ZM412.236 317.615C409.436 318.542 406.564 319.438 403.637 320.306C397.157 299.793 388.411 277.979 377.709 255.443C387.922 233.443 396.329 211.908 402.628 191.528C407.865 193.043 412.949 194.642 417.847 196.329C465.227 212.639 494.128 236.754 494.128 255.336C494.128 275.129 462.916 300.823 412.236 317.615ZM391.208 359.284C396.331 385.166 397.063 408.565 393.669 426.858C390.62 443.295 384.487 454.254 376.905 458.643C360.769 467.983 326.264 455.843 289.05 423.82C284.784 420.149 280.487 416.229 276.177 412.081C290.603 396.302 305.022 377.959 319.094 357.588C343.845 355.392 367.23 351.801 388.436 346.899C389.48 351.112 390.408 355.244 391.208 359.284ZM178.552 457.029C162.788 462.597 150.232 462.756 142.642 458.38C126.492 449.065 119.778 413.109 128.936 364.876C129.985 359.352 131.234 353.678 132.673 347.878C153.647 352.516 176.86 355.854 201.671 357.865C215.838 377.799 230.673 396.122 245.622 412.165C242.356 415.319 239.103 418.321 235.867 421.149C216.003 438.513 196.096 450.833 178.552 457.029ZM104.697 317.494C79.7316 308.961 59.1141 297.871 44.9817 285.769C32.2829 274.894 25.8716 264.097 25.8716 255.336C25.8716 236.692 53.6669 212.912 100.025 196.75C105.65 194.788 111.538 192.94 117.648 191.204C124.055 212.045 132.46 233.834 142.602 255.868C132.329 278.229 123.805 300.366 117.335 321.451C112.979 320.199 108.758 318.881 104.697 317.494ZM129.454 148.976C119.832 99.8008 126.222 62.7051 142.303 53.3965C159.432 43.4801 197.309 57.6188 237.23 93.0659C239.782 95.3316 242.343 97.7029 244.913 100.156C230.037 116.13 215.337 134.315 201.296 154.131C177.216 156.363 154.166 159.948 132.974 164.749C131.641 159.39 130.461 154.124 129.454 148.976ZM350.308 203.51C345.242 194.759 340.04 186.215 334.738 177.905C351.074 179.97 366.726 182.711 381.424 186.066C377.011 200.208 371.511 214.995 365.037 230.153C360.393 221.336 355.481 212.446 350.308 203.51ZM260.244 115.788C270.333 126.718 280.436 138.921 290.374 152.161C280.36 151.688 270.222 151.442 260 151.442C249.875 151.442 239.812 151.682 229.86 152.147C239.807 139.03 249.998 126.843 260.244 115.788ZM169.604 203.661C164.543 212.437 159.722 221.279 155.151 230.137C148.781 215.031 143.332 200.177 138.881 185.834C153.489 182.565 169.067 179.892 185.299 177.866C179.922 186.254 174.678 194.86 169.604 203.66V203.661ZM185.767 334.366C168.996 332.495 153.184 329.959 138.58 326.781C143.102 312.182 148.671 297.01 155.175 281.579C159.758 290.431 164.599 299.277 169.69 308.071H169.691C174.878 317.031 180.251 325.807 185.767 334.366ZM260.849 396.426C250.483 385.241 240.143 372.869 230.044 359.56C239.847 359.945 249.842 360.142 260 360.142C270.436 360.142 280.752 359.906 290.907 359.454C280.936 373.003 270.87 385.394 260.849 396.426ZM365.246 280.793C372.089 296.391 377.858 311.483 382.438 325.833C367.593 329.219 351.565 331.947 334.678 333.974C339.993 325.551 345.24 316.861 350.395 307.921C355.611 298.877 360.563 289.819 365.246 280.793ZM331.449 296.994C323.446 310.871 315.229 324.119 306.887 336.623C291.694 337.71 275.998 338.269 260 338.269C244.067 338.269 228.568 337.774 213.644 336.805C204.966 324.137 196.571 310.85 188.618 297.113H188.62C180.689 283.414 173.389 269.599 166.774 255.861C173.387 242.091 180.668 228.261 188.554 214.586L188.552 214.588C196.459 200.877 204.78 187.655 213.378 175.066C228.605 173.915 244.219 173.314 259.999 173.314H260C275.851 173.314 291.485 173.919 306.708 175.08C315.174 187.578 323.439 200.757 331.377 214.47C339.405 228.337 346.78 242.076 353.449 255.55C346.8 269.256 339.442 283.133 331.449 296.994ZM376.569 52.7458C393.715 62.6331 400.382 102.508 389.61 154.797C388.923 158.134 388.149 161.532 387.309 164.976C366.067 160.075 343.001 156.428 318.851 154.162C304.782 134.128 290.203 115.914 275.57 100.146C279.504 96.3614 283.433 92.7524 287.345 89.3467C325.144 56.4514 360.473 43.4637 376.569 52.7458ZM260 209.616C285.25 209.616 305.72 230.085 305.72 255.336C305.72 280.586 285.25 301.056 260 301.056C234.75 301.056 214.28 280.586 214.28 255.336C214.28 230.085 234.75 209.616 260 209.616Z" fill="#00D8FF"/>
</g>
<defs>
<filter id="filter0_d_340_694" x="0" y="0" width="520" height="520" filterUnits="userSpaceOnUse" color-interpolation-filters="sRGB">
<feFlood flood-opacity="0" result="BackgroundImageFix"/>
<feColorMatrix in="SourceAlpha" type="matrix" values="0 0 0 0 0 0 0 0 0 0 0 0 0 0 0 0 0 0 127 0" result="hardAlpha"/>
<feOffset dy="4"/>
<feGaussianBlur stdDeviation="2"/>
<feComposite in2="hardAlpha" operator="out"/>
<feColorMatrix type="matrix" values="0 0 0 0 0 0 0 0 0 0 0 0 0 0 0 0 0 0 0.25 0"/>
<feBlend mode="normal" in2="BackgroundImageFix" result="effect1_dropShadow_340_694"/>
<feBlend mode="normal" in="SourceGraphic" in2="effect1_dropShadow_340_694" result="shape"/>
</filter>
</defs>
</svg>
